<?xml version="1.0" standalone="no"?>
<!DOCTYPE svg PUBLIC "-//W3C//DTD SVG 20010904//EN"
 "http://www.w3.org/TR/2001/REC-SVG-20010904/DTD/svg10.dtd">
<svg version="1.0" xmlns="http://www.w3.org/2000/svg"
 width="512.000000pt" height="512.000000pt" viewBox="0 0 512.000000 512.000000"
 preserveAspectRatio="xMidYMid meet">

<g transform="translate(0.000000,512.000000) scale(0.100000,-0.100000)"
fill="#000000" stroke="none">
<path d="M565 4501 c-22 -10 -54 -34 -72 -52 -67 -71 -63 32 -63 -1462 l0
-1353 26 -52 c30 -61 74 -98 140 -118 71 -21 3857 -21 3928 0 66 20 110 57
140 118 l26 52 0 1355 c0 1300 -1 1358 -19 1396 -10 22 -34 54 -52 72 -72 68
96 63 -2061 63 -1881 0 -1954 -1 -1993 -19z m1749 -915 c63 -26 685 -468 705
-500 44 -71 34 -165 -22 -221 -40 -39 -646 -461 -682 -475 -96 -37 -206 19
-235 118 -8 25 -10 189 -8 503 l3 465 28 43 c47 70 136 98 211 67z"/>
<path d="M1042 1199 c-69 -34 -122 -90 -149 -155 l-18 -44 -198 0 c-197 0
-198 0 -222 -25 -17 -16 -25 -35 -25 -60 0 -25 8 -44 25 -60 24 -25 25 -25
222 -25 l198 0 18 -44 c25 -62 76 -117 138 -151 44 -23 69 -30 135 -33 72 -4
88 -1 143 23 70 32 133 94 162 161 l20 44 1575 0 1575 0 24 25 c34 33 34 87 0
120 l-24 25 -1574 0 -1575 0 -26 55 c-33 67 -110 138 -173 159 -26 9 -79 16
-118 16 -60 0 -82 -5 -133 -31z"/>
</g>
</svg>
